<svg xmlns="http://www.w3.org/2000/svg" width="96" height="407" viewBox="0 0 96 407" fill="none">
<path d="M80.28 342.744V374.744L95 379.608V405.976L4.75999 373.08V344.152L95 311.384V337.88L80.28 342.744ZM61.08 349.016L31.896 358.744L61.08 368.344V349.016ZM33.176 278.119C29.7627 276.156 27.1173 273.383 25.24 269.799C23.2773 266.215 22.296 261.991 22.296 257.127C22.296 251.41 23.7893 246.247 26.776 241.639C29.7627 236.946 34.0293 233.276 39.576 230.631C45.1227 227.9 51.608 226.535 59.032 226.535C66.456 226.535 72.984 227.9 78.616 230.631C84.1627 233.276 88.4293 236.946 91.416 241.639C94.4027 246.247 95.896 251.41 95.896 257.127C95.896 261.991 94.9573 266.215 93.08 269.799C91.1173 273.383 88.4293 276.156 85.016 278.119H95L95 303.207H0.279999V278.119H33.176ZM59.032 252.007C54.3387 252.007 50.712 253.287 48.152 255.847C45.5067 258.322 44.184 261.394 44.184 265.063C44.184 268.732 45.5067 271.847 48.152 274.407C50.7973 276.882 54.424 278.119 59.032 278.119C63.7253 278.119 67.3947 276.882 70.04 274.407C72.6853 271.847 74.008 268.732 74.008 265.063C74.008 261.394 72.6853 258.322 70.04 255.847C67.3093 253.287 63.64 252.007 59.032 252.007ZM23.192 61.36H95V86.576H84.76C88.0027 88.7093 90.648 91.6533 92.696 95.408C94.6587 99.1627 95.64 103.472 95.64 108.336C95.64 116.699 92.9093 123.312 87.448 128.176C81.9013 132.955 74.392 135.344 64.92 135.344H23.192V110.384H61.72C65.816 110.384 69.0587 109.317 71.448 107.184C73.752 104.965 74.904 102.064 74.904 98.48C74.904 94.8107 73.752 91.9093 71.448 89.776C69.0587 87.6427 65.816 86.576 61.72 86.576H23.192V61.36ZM73.624 4.714H95V15.594C95 33.9407 85.912 43.114 67.736 43.114H44.056V51.946H23.192V43.114H5.784L5.784 17.898H23.192V4.842H44.056V17.898H68.12C70.0827 17.898 71.4907 17.4713 72.344 16.618C73.1973 15.6793 73.624 14.1433 73.624 12.01V4.714Z" fill="white"/>
<path d="M95.896 182.799C95.896 189.967 94.4027 196.41 91.416 202.127C88.4293 207.759 84.1627 212.196 78.616 215.439C73.0693 218.682 66.5413 220.303 59.032 220.303C51.608 220.303 45.1227 218.682 39.576 215.439C34.0293 212.111 29.7627 207.631 26.776 201.999C23.7893 196.282 22.296 189.839 22.296 182.671C22.296 175.503 23.7893 169.103 26.776 163.471C29.7627 157.754 34.0293 153.274 39.576 150.031C45.1227 146.703 51.608 145.039 59.032 145.039C66.456 145.039 72.984 146.703 78.616 150.031C84.1627 153.274 88.4293 157.754 91.416 163.471C94.4027 169.188 95.896 175.631 95.896 182.799ZM74.136 182.799C74.136 179.3 72.856 176.399 70.296 174.095C67.6507 171.706 63.896 170.511 59.032 170.511C54.168 170.511 50.456 171.706 47.896 174.095C45.336 176.399 44.056 179.258 44.056 182.671C44.056 186.084 45.336 188.943 47.896 191.247C50.456 193.551 54.168 194.703 59.032 194.703C63.9813 194.703 67.736 193.594 70.296 191.375C72.856 189.156 74.136 186.298 74.136 182.799Z" fill="#E96479"/>
<ellipse cx="63" cy="178.5" rx="32" ry="30.5" fill="#E96479"/>
</svg>