<svg xmlns="http://www.w3.org/2000/svg" width="407" height="96" viewBox="0 0 407 96" fill="none">
<path d="M64.256 80.28H32.256L27.392 95H1.024L33.92 4.75999H62.848L95.616 95H69.12L64.256 80.28ZM57.984 61.08L48.256 31.896L38.656 61.08H57.984ZM128.881 33.176C130.844 29.7627 133.617 27.1173 137.201 25.24C140.785 23.2773 145.009 22.296 149.873 22.296C155.59 22.296 160.753 23.7893 165.361 26.776C170.054 29.7627 173.724 34.0293 176.369 39.576C179.1 45.1227 180.465 51.608 180.465 59.032C180.465 66.456 179.1 72.984 176.369 78.616C173.724 84.1627 170.054 88.4293 165.361 91.416C160.753 94.4027 155.59 95.896 149.873 95.896C145.009 95.896 140.785 94.9573 137.201 93.08C133.617 91.1173 130.844 88.4293 128.881 85.016V95H103.793V0.279999H128.881V33.176ZM154.993 59.032C154.993 54.3387 153.713 50.712 151.153 48.152C148.678 45.5067 145.606 44.184 141.937 44.184C138.268 44.184 135.153 45.5067 132.593 48.152C130.118 50.7973 128.881 54.424 128.881 59.032C128.881 63.7253 130.118 67.3947 132.593 70.04C135.153 72.6853 138.268 74.008 141.937 74.008C145.606 74.008 148.678 72.6853 151.153 70.04C153.713 67.3093 154.993 63.64 154.993 59.032ZM345.64 23.192V95H320.424V84.76C318.291 88.0027 315.347 90.648 311.592 92.696C307.837 94.6587 303.528 95.64 298.664 95.64C290.301 95.64 283.688 92.9093 278.824 87.448C274.045 81.9013 271.656 74.392 271.656 64.92V23.192H296.616V61.72C296.616 65.816 297.683 69.0587 299.816 71.448C302.035 73.752 304.936 74.904 308.52 74.904C312.189 74.904 315.091 73.752 317.224 71.448C319.357 69.0587 320.424 65.816 320.424 61.72V23.192H345.64ZM402.286 73.624V95H391.406C373.059 95 363.886 85.912 363.886 67.736V44.056H355.054V23.192H363.886V5.784H389.102V23.192H402.158V44.056H389.102V68.12C389.102 70.0827 389.529 71.4907 390.382 72.344C391.321 73.1973 392.857 73.624 394.99 73.624H402.286Z" fill="#1B1B1F"/>
<path d="M224.201 95.896C217.033 95.896 210.59 94.4027 204.873 91.416C199.241 88.4293 194.804 84.1627 191.561 78.616C188.318 73.0693 186.697 66.5413 186.697 59.032C186.697 51.608 188.318 45.1227 191.561 39.576C194.889 34.0293 199.369 29.7627 205.001 26.776C210.718 23.7893 217.161 22.296 224.329 22.296C231.497 22.296 237.897 23.7893 243.529 26.776C249.246 29.7627 253.726 34.0293 256.969 39.576C260.297 45.1227 261.961 51.608 261.961 59.032C261.961 66.456 260.297 72.984 256.969 78.616C253.726 84.1627 249.246 88.4293 243.529 91.416C237.812 94.4027 231.369 95.896 224.201 95.896ZM224.201 74.136C227.7 74.136 230.601 72.856 232.905 70.296C235.294 67.6507 236.489 63.896 236.489 59.032C236.489 54.168 235.294 50.456 232.905 47.896C230.601 45.336 227.742 44.056 224.329 44.056C220.916 44.056 218.057 45.336 215.753 47.896C213.449 50.456 212.297 54.168 212.297 59.032C212.297 63.9813 213.406 67.736 215.625 70.296C217.844 72.856 220.702 74.136 224.201 74.136Z" fill="#E96479"/>
<ellipse cx="226.5" cy="63" rx="32" ry="30.5" transform="rotate(90 226.5 63)" fill="#E96479"/>
</svg>