<svg xmlns="http://www.w3.org/2000/svg" width="140" height="543" viewBox="0 0 140 543" fill="none">
<path d="M44.84 464.536C50.3013 464.536 55.2933 465.816 59.816 468.376C64.2533 470.851 67.8373 474.648 70.568 479.768C73.2133 484.803 74.536 490.989 74.536 498.328V510.744H105V535.832H14.76L14.76 498.328C14.76 491.075 16.04 484.931 18.6 479.896C21.16 474.776 24.7013 470.936 29.224 468.376C33.7467 465.816 38.952 464.536 44.84 464.536ZM54.568 500.76C54.568 493.677 51.3253 490.136 44.84 490.136C38.2693 490.136 34.984 493.677 34.984 500.76V510.744H54.568V500.76ZM45.864 429.369C41.768 426.553 38.5253 423.14 36.136 419.129C33.7467 415.118 32.552 410.809 32.552 406.201H59.304V413.241C59.304 418.702 60.3707 422.756 62.504 425.401C64.6373 428.046 68.3493 429.369 73.64 429.369H105V454.457H33.192V429.369H45.864ZM26.536 303.288C26.536 307.725 25.3413 311.309 22.952 314.04C20.4773 316.685 17.4053 318.008 13.736 318.008C9.98133 318.008 6.86666 316.685 4.392 314.04C1.91733 311.309 0.679993 307.725 0.679993 303.288C0.679993 298.936 1.91733 295.437 4.392 292.792C6.86666 290.061 9.98133 288.696 13.736 288.696C17.4053 288.696 20.4773 290.061 22.952 292.792C25.3413 295.437 26.536 298.936 26.536 303.288ZM112.04 290.744C130.216 290.744 139.304 299.875 139.304 318.136V327.224H117.928V321.848C117.928 319.715 117.501 318.179 116.648 317.24C115.795 316.301 114.387 315.832 112.424 315.832H33.192V290.744H112.04ZM68.264 207.974C70.2267 207.974 72.1893 208.102 74.152 208.358L74.152 255.846C78.0773 255.59 81.0213 254.523 82.984 252.646C84.8613 250.683 85.8 248.209 85.8 245.222C85.8 241.041 83.9227 238.054 80.168 236.262V209.51C85.1173 210.619 89.5547 212.795 93.48 216.038C97.32 219.195 100.349 223.206 102.568 228.07C104.787 232.934 105.896 238.31 105.896 244.198C105.896 251.281 104.403 257.595 101.416 263.142C98.4293 268.603 94.1627 272.913 88.616 276.07C83.0693 279.142 76.5413 280.678 69.032 280.678C61.5227 280.678 55.0373 279.142 49.576 276.07C44.0293 272.998 39.7627 268.731 36.776 263.27C33.7893 257.723 32.296 251.366 32.296 244.198C32.296 237.115 33.7467 230.843 36.648 225.382C39.5493 219.921 43.7307 215.654 49.192 212.582C54.568 209.51 60.9253 207.974 68.264 207.974ZM61.992 233.574C58.92 233.574 56.5307 234.598 54.824 236.646C53.032 238.694 52.136 241.254 52.136 244.326C52.136 247.398 52.9893 249.915 54.696 251.878C56.3173 253.841 58.7493 255.121 61.992 255.718V233.574ZM69.032 201.803C61.608 201.803 55.1227 200.267 49.576 197.195C44.0293 194.123 39.7627 189.856 36.776 184.395C33.7893 178.848 32.296 172.534 32.296 165.451C32.296 156.32 34.8133 148.64 39.848 142.411C44.7973 136.182 51.752 132.171 60.712 130.379V157.003C56.0187 158.539 53.672 161.526 53.672 165.963C53.672 169.12 54.9947 171.638 57.64 173.515C60.2 175.307 63.9973 176.203 69.032 176.203C74.0667 176.203 77.9067 175.307 80.552 173.515C83.1973 171.638 84.52 169.12 84.52 165.963C84.52 161.44 82.1733 158.454 77.48 157.003V130.379C86.3547 132.171 93.3093 136.182 98.344 142.411C103.379 148.64 105.896 156.32 105.896 165.451C105.896 172.534 104.403 178.848 101.416 184.395C98.4293 189.856 94.1627 194.123 88.616 197.195C83.0693 200.267 76.5413 201.803 69.032 201.803ZM83.624 77.589H105V88.469C105 106.816 95.912 115.989 77.736 115.989H54.056V124.821H33.192V115.989H15.784L15.784 90.773H33.192V77.717H54.056V90.773H78.12C80.0827 90.773 81.4907 90.3463 82.344 89.493C83.1973 88.5543 83.624 87.0183 83.624 84.885V77.589ZM105.896 35.49C105.896 41.9753 104.829 47.778 102.696 52.898C100.477 57.9327 97.4907 61.9433 93.736 64.93C89.896 67.8313 85.5867 69.4527 80.808 69.794V45.474C83.112 45.1327 84.904 44.066 86.184 42.274C87.464 40.482 88.104 38.2633 88.104 35.618C88.104 33.57 87.6773 31.9487 86.824 30.754C85.9707 29.5593 84.8613 28.962 83.496 28.962C81.704 28.962 80.3813 29.9433 79.528 31.906C78.6747 33.8687 77.736 37.1113 76.712 41.634C75.688 46.754 74.536 51.0207 73.256 54.434C71.976 57.8473 69.8853 60.834 66.984 63.394C64.0827 65.8687 60.1573 67.106 55.208 67.106C50.9413 67.106 47.1013 65.954 43.688 63.65C40.1893 61.346 37.416 57.9753 35.368 53.538C33.32 49.0153 32.296 43.5967 32.296 37.282C32.296 27.8953 34.6 20.514 39.208 15.138C43.816 9.762 49.8747 6.64733 57.384 5.794V28.45C55.08 28.8767 53.3307 29.9007 52.136 31.522C50.856 33.058 50.216 35.1487 50.216 37.794C50.216 39.842 50.6 41.4207 51.368 42.53C52.136 43.554 53.2027 44.066 54.568 44.066C56.2747 44.066 57.5973 43.0847 58.536 41.122C59.3893 39.1593 60.2853 36.002 61.224 31.65C62.3333 26.4447 63.5707 22.1353 64.936 18.722C66.3013 15.2233 68.52 12.194 71.592 9.634C74.5787 6.98867 78.6747 5.666 83.88 5.666C88.0613 5.666 91.816 6.90333 95.144 9.378C98.472 11.7673 101.117 15.2233 103.08 19.746C104.957 24.1833 105.896 29.4313 105.896 35.49Z" fill="white"/>
<path d="M105.896 363.799C105.896 370.967 104.403 377.41 101.416 383.127C98.4293 388.759 94.1627 393.196 88.616 396.439C83.0693 399.682 76.5413 401.303 69.032 401.303C61.608 401.303 55.1227 399.682 49.576 396.439C44.0293 393.111 39.7627 388.631 36.776 382.999C33.7893 377.282 32.296 370.839 32.296 363.671C32.296 356.503 33.7893 350.103 36.776 344.471C39.7627 338.754 44.0293 334.274 49.576 331.031C55.1227 327.703 61.608 326.039 69.032 326.039C76.456 326.039 82.984 327.703 88.616 331.031C94.1627 334.274 98.4293 338.754 101.416 344.471C104.403 350.188 105.896 356.631 105.896 363.799ZM84.136 363.799C84.136 360.3 82.856 357.399 80.296 355.095C77.6507 352.706 73.896 351.511 69.032 351.511C64.168 351.511 60.456 352.706 57.896 355.095C55.336 357.399 54.056 360.258 54.056 363.671C54.056 367.084 55.336 369.943 57.896 372.247C60.456 374.551 64.168 375.703 69.032 375.703C73.9813 375.703 77.736 374.594 80.296 372.375C82.856 370.156 84.136 367.298 84.136 363.799Z" fill="#F3A07D"/>
<ellipse cx="73" cy="364.5" rx="32" ry="30.5" fill="#F3A07D"/>
</svg>