<svg xmlns="http://www.w3.org/2000/svg" width="531" height="140" viewBox="0 0 531 140" fill="none">
<path d="M71.464 44.84C71.464 50.3013 70.184 55.2933 67.624 59.816C65.1493 64.2533 61.352 67.8373 56.232 70.568C51.1973 73.2133 45.0107 74.536 37.672 74.536H25.256V105H0.168V14.76H37.672C44.9253 14.76 51.0693 16.04 56.104 18.6C61.224 21.16 65.064 24.7013 67.624 29.224C70.184 33.7467 71.464 38.952 71.464 44.84ZM35.24 54.568C42.3227 54.568 45.864 51.3253 45.864 44.84C45.864 38.2693 42.3227 34.984 35.24 34.984H25.256V54.568H35.24ZM106.631 45.864C109.447 41.768 112.86 38.5253 116.871 36.136C120.882 33.7467 125.191 32.552 129.799 32.552V59.304H122.759C117.298 59.304 113.244 60.3707 110.599 62.504C107.954 64.6373 106.631 68.3493 106.631 73.64V105H81.543V33.192H106.631V45.864ZM232.712 26.536C228.275 26.536 224.691 25.3413 221.96 22.952C219.315 20.4773 217.992 17.4053 217.992 13.736C217.992 9.98133 219.315 6.86666 221.96 4.392C224.691 1.91733 228.275 0.679993 232.712 0.679993C237.064 0.679993 240.563 1.91733 243.208 4.392C245.939 6.86666 247.304 9.98133 247.304 13.736C247.304 17.4053 245.939 20.4773 243.208 22.952C240.563 25.3413 237.064 26.536 232.712 26.536ZM245.256 112.04C245.256 130.216 236.125 139.304 217.864 139.304H208.776V117.928H214.152C216.285 117.928 217.821 117.501 218.76 116.648C219.699 115.795 220.168 114.387 220.168 112.424V33.192H245.256V112.04ZM328.026 68.264C328.026 70.2267 327.898 72.1893 327.642 74.152H280.154C280.41 78.0773 281.477 81.0213 283.354 82.984C285.317 84.8613 287.791 85.8 290.778 85.8C294.959 85.8 297.946 83.9227 299.738 80.168H326.49C325.381 85.1173 323.205 89.5547 319.962 93.48C316.805 97.32 312.794 100.349 307.93 102.568C303.066 104.787 297.69 105.896 291.802 105.896C284.719 105.896 278.405 104.403 272.858 101.416C267.397 98.4293 263.087 94.1627 259.93 88.616C256.858 83.0693 255.322 76.5413 255.322 69.032C255.322 61.5227 256.858 55.0373 259.93 49.576C263.002 44.0293 267.269 39.7627 272.73 36.776C278.277 33.7893 284.634 32.296 291.802 32.296C298.885 32.296 305.157 33.7467 310.618 36.648C316.079 39.5493 320.346 43.7307 323.418 49.192C326.49 54.568 328.026 60.9253 328.026 68.264ZM302.426 61.992C302.426 58.92 301.402 56.5307 299.354 54.824C297.306 53.032 294.746 52.136 291.674 52.136C288.602 52.136 286.085 52.9893 284.122 54.696C282.159 56.3173 280.879 58.7493 280.282 61.992H302.426ZM334.197 69.032C334.197 61.608 335.733 55.1227 338.805 49.576C341.877 44.0293 346.144 39.7627 351.605 36.776C357.152 33.7893 363.466 32.296 370.549 32.296C379.68 32.296 387.36 34.8133 393.589 39.848C399.818 44.7973 403.829 51.752 405.621 60.712H378.997C377.461 56.0187 374.474 53.672 370.037 53.672C366.88 53.672 364.362 54.9947 362.485 57.64C360.693 60.2 359.797 63.9973 359.797 69.032C359.797 74.0667 360.693 77.9067 362.485 80.552C364.362 83.1973 366.88 84.52 370.037 84.52C374.56 84.52 377.546 82.1733 378.997 77.48H405.621C403.829 86.3547 399.818 93.3093 393.589 98.344C387.36 103.379 379.68 105.896 370.549 105.896C363.466 105.896 357.152 104.403 351.605 101.416C346.144 98.4293 341.877 94.1627 338.805 88.616C335.733 83.0693 334.197 76.5413 334.197 69.032ZM458.411 83.624V105H447.531C429.184 105 420.011 95.912 420.011 77.736V54.056H411.179V33.192H420.011V15.784H445.227V33.192H458.283V54.056H445.227V78.12C445.227 80.0827 445.654 81.4907 446.507 82.344C447.446 83.1973 448.982 83.624 451.115 83.624H458.411ZM500.51 105.896C494.025 105.896 488.222 104.829 483.102 102.696C478.067 100.477 474.057 97.4907 471.07 93.736C468.169 89.896 466.547 85.5867 466.206 80.808H490.526C490.867 83.112 491.934 84.904 493.726 86.184C495.518 87.464 497.737 88.104 500.382 88.104C502.43 88.104 504.051 87.6773 505.246 86.824C506.441 85.9707 507.038 84.8613 507.038 83.496C507.038 81.704 506.057 80.3813 504.094 79.528C502.131 78.6747 498.889 77.736 494.366 76.712C489.246 75.688 484.979 74.536 481.566 73.256C478.153 71.976 475.166 69.8853 472.606 66.984C470.131 64.0827 468.894 60.1573 468.894 55.208C468.894 50.9413 470.046 47.1013 472.35 43.688C474.654 40.1893 478.025 37.416 482.462 35.368C486.985 33.32 492.403 32.296 498.718 32.296C508.105 32.296 515.486 34.6 520.862 39.208C526.238 43.816 529.353 49.8747 530.206 57.384H507.55C507.123 55.08 506.099 53.3307 504.478 52.136C502.942 50.856 500.851 50.216 498.206 50.216C496.158 50.216 494.579 50.6 493.47 51.368C492.446 52.136 491.934 53.2027 491.934 54.568C491.934 56.2747 492.915 57.5973 494.878 58.536C496.841 59.3893 499.998 60.2853 504.35 61.224C509.555 62.3333 513.865 63.5707 517.278 64.936C520.777 66.3013 523.806 68.52 526.366 71.592C529.011 74.5787 530.334 78.6747 530.334 83.88C530.334 88.0613 529.097 91.816 526.622 95.144C524.233 98.472 520.777 101.117 516.254 103.08C511.817 104.957 506.569 105.896 500.51 105.896Z" fill="white"/>
<path d="M172.201 105.896C165.033 105.896 158.59 104.403 152.873 101.416C147.241 98.4293 142.804 94.1627 139.561 88.616C136.318 83.0693 134.697 76.5413 134.697 69.032C134.697 61.608 136.318 55.1227 139.561 49.576C142.889 44.0293 147.369 39.7627 153.001 36.776C158.718 33.7893 165.161 32.296 172.329 32.296C179.497 32.296 185.897 33.7893 191.529 36.776C197.246 39.7627 201.726 44.0293 204.969 49.576C208.297 55.1227 209.961 61.608 209.961 69.032C209.961 76.456 208.297 82.984 204.969 88.616C201.726 94.1627 197.246 98.4293 191.529 101.416C185.812 104.403 179.369 105.896 172.201 105.896ZM172.201 84.136C175.7 84.136 178.601 82.856 180.905 80.296C183.294 77.6507 184.489 73.896 184.489 69.032C184.489 64.168 183.294 60.456 180.905 57.896C178.601 55.336 175.742 54.056 172.329 54.056C168.916 54.056 166.057 55.336 163.753 57.896C161.449 60.456 160.297 64.168 160.297 69.032C160.297 73.9813 161.406 77.736 163.625 80.296C165.844 82.856 168.702 84.136 172.201 84.136Z" fill="#F3A07D"/>
</svg>
