<svg xmlns="http://www.w3.org/2000/svg" width="543" height="140" viewBox="0 0 543 140" fill="none">
<path d="M78.464 44.84C78.464 50.3013 77.184 55.2933 74.624 59.816C72.1493 64.2533 68.352 67.8373 63.232 70.568C58.1973 73.2133 52.0107 74.536 44.672 74.536H32.256V105H7.168V14.76H44.672C51.9253 14.76 58.0693 16.04 63.104 18.6C68.224 21.16 72.064 24.7013 74.624 29.224C77.184 33.7467 78.464 38.952 78.464 44.84ZM42.24 54.568C49.3227 54.568 52.864 51.3253 52.864 44.84C52.864 38.2693 49.3227 34.984 42.24 34.984H32.256V54.568H42.24ZM113.631 45.864C116.447 41.768 119.86 38.5253 123.871 36.136C127.882 33.7467 132.191 32.552 136.799 32.552V59.304H129.759C124.298 59.304 120.244 60.3707 117.599 62.504C114.954 64.6373 113.631 68.3493 113.631 73.64V105H88.543V33.192H113.631V45.864ZM239.712 26.536C235.275 26.536 231.691 25.3413 228.96 22.952C226.315 20.4773 224.992 17.4053 224.992 13.736C224.992 9.98133 226.315 6.86666 228.96 4.392C231.691 1.91733 235.275 0.679993 239.712 0.679993C244.064 0.679993 247.563 1.91733 250.208 4.392C252.939 6.86666 254.304 9.98133 254.304 13.736C254.304 17.4053 252.939 20.4773 250.208 22.952C247.563 25.3413 244.064 26.536 239.712 26.536ZM252.256 112.04C252.256 130.216 243.125 139.304 224.864 139.304H215.776V117.928H221.152C223.285 117.928 224.821 117.501 225.76 116.648C226.699 115.795 227.168 114.387 227.168 112.424V33.192H252.256V112.04ZM335.026 68.264C335.026 70.2267 334.898 72.1893 334.642 74.152H287.154C287.41 78.0773 288.477 81.0213 290.354 82.984C292.317 84.8613 294.791 85.8 297.778 85.8C301.959 85.8 304.946 83.9227 306.738 80.168H333.49C332.381 85.1173 330.205 89.5547 326.962 93.48C323.805 97.32 319.794 100.349 314.93 102.568C310.066 104.787 304.69 105.896 298.802 105.896C291.719 105.896 285.405 104.403 279.858 101.416C274.397 98.4293 270.087 94.1627 266.93 88.616C263.858 83.0693 262.322 76.5413 262.322 69.032C262.322 61.5227 263.858 55.0373 266.93 49.576C270.002 44.0293 274.269 39.7627 279.73 36.776C285.277 33.7893 291.634 32.296 298.802 32.296C305.885 32.296 312.157 33.7467 317.618 36.648C323.079 39.5493 327.346 43.7307 330.418 49.192C333.49 54.568 335.026 60.9253 335.026 68.264ZM309.426 61.992C309.426 58.92 308.402 56.5307 306.354 54.824C304.306 53.032 301.746 52.136 298.674 52.136C295.602 52.136 293.085 52.9893 291.122 54.696C289.159 56.3173 287.879 58.7493 287.282 61.992H309.426ZM341.197 69.032C341.197 61.608 342.733 55.1227 345.805 49.576C348.877 44.0293 353.144 39.7627 358.605 36.776C364.152 33.7893 370.466 32.296 377.549 32.296C386.68 32.296 394.36 34.8133 400.589 39.848C406.818 44.7973 410.829 51.752 412.621 60.712H385.997C384.461 56.0187 381.474 53.672 377.037 53.672C373.88 53.672 371.362 54.9947 369.485 57.64C367.693 60.2 366.797 63.9973 366.797 69.032C366.797 74.0667 367.693 77.9067 369.485 80.552C371.362 83.1973 373.88 84.52 377.037 84.52C381.56 84.52 384.546 82.1733 385.997 77.48H412.621C410.829 86.3547 406.818 93.3093 400.589 98.344C394.36 103.379 386.68 105.896 377.549 105.896C370.466 105.896 364.152 104.403 358.605 101.416C353.144 98.4293 348.877 94.1627 345.805 88.616C342.733 83.0693 341.197 76.5413 341.197 69.032ZM465.411 83.624V105H454.531C436.184 105 427.011 95.912 427.011 77.736V54.056H418.179V33.192H427.011V15.784H452.227V33.192H465.283V54.056H452.227V78.12C452.227 80.0827 452.654 81.4907 453.507 82.344C454.446 83.1973 455.982 83.624 458.115 83.624H465.411ZM507.51 105.896C501.025 105.896 495.222 104.829 490.102 102.696C485.067 100.477 481.057 97.4907 478.07 93.736C475.169 89.896 473.547 85.5867 473.206 80.808H497.526C497.867 83.112 498.934 84.904 500.726 86.184C502.518 87.464 504.737 88.104 507.382 88.104C509.43 88.104 511.051 87.6773 512.246 86.824C513.441 85.9707 514.038 84.8613 514.038 83.496C514.038 81.704 513.057 80.3813 511.094 79.528C509.131 78.6747 505.889 77.736 501.366 76.712C496.246 75.688 491.979 74.536 488.566 73.256C485.153 71.976 482.166 69.8853 479.606 66.984C477.131 64.0827 475.894 60.1573 475.894 55.208C475.894 50.9413 477.046 47.1013 479.35 43.688C481.654 40.1893 485.025 37.416 489.462 35.368C493.985 33.32 499.403 32.296 505.718 32.296C515.105 32.296 522.486 34.6 527.862 39.208C533.238 43.816 536.353 49.8747 537.206 57.384H514.55C514.123 55.08 513.099 53.3307 511.478 52.136C509.942 50.856 507.851 50.216 505.206 50.216C503.158 50.216 501.579 50.6 500.47 51.368C499.446 52.136 498.934 53.2027 498.934 54.568C498.934 56.2747 499.915 57.5973 501.878 58.536C503.841 59.3893 506.998 60.2853 511.35 61.224C516.555 62.3333 520.865 63.5707 524.278 64.936C527.777 66.3013 530.806 68.52 533.366 71.592C536.011 74.5787 537.334 78.6747 537.334 83.88C537.334 88.0613 536.097 91.816 533.622 95.144C531.233 98.472 527.777 101.117 523.254 103.08C518.817 104.957 513.569 105.896 507.51 105.896Z" fill="#1B1B1F"/>
<path d="M179.201 105.896C172.033 105.896 165.59 104.403 159.873 101.416C154.241 98.4293 149.804 94.1627 146.561 88.616C143.318 83.0693 141.697 76.5413 141.697 69.032C141.697 61.608 143.318 55.1227 146.561 49.576C149.889 44.0293 154.369 39.7627 160.001 36.776C165.718 33.7893 172.161 32.296 179.329 32.296C186.497 32.296 192.897 33.7893 198.529 36.776C204.246 39.7627 208.726 44.0293 211.969 49.576C215.297 55.1227 216.961 61.608 216.961 69.032C216.961 76.456 215.297 82.984 211.969 88.616C208.726 94.1627 204.246 98.4293 198.529 101.416C192.812 104.403 186.369 105.896 179.201 105.896ZM179.201 84.136C182.7 84.136 185.601 82.856 187.905 80.296C190.294 77.6507 191.489 73.896 191.489 69.032C191.489 64.168 190.294 60.456 187.905 57.896C185.601 55.336 182.742 54.056 179.329 54.056C175.916 54.056 173.057 55.336 170.753 57.896C168.449 60.456 167.297 64.168 167.297 69.032C167.297 73.9813 168.406 77.736 170.625 80.296C172.844 82.856 175.702 84.136 179.201 84.136Z" fill="#F3A07D"/>
<ellipse cx="178.5" cy="73" rx="32" ry="30.5" transform="rotate(90 178.5 73)" fill="#F3A07D"/>
</svg>